<svg width="98" height="100" viewBox="0 0 98 100" fill="none" xmlns="http://www.w3.org/2000/svg">
<path d="M50 90C48.5833 90 47.3967 89.52 46.44 88.56C45.4833 87.6 45.0033 86.4133 45 85V65C45 63.5833 45.48 62.3967 46.44 61.44C47.4 60.4833 48.5867 60.0033 50 60H62.5C63.9167 60 65.105 60.48 66.065 61.44C67.025 62.4 67.5033 63.5867 67.5 65V85C67.5 86.4167 67.02 87.605 66.06 88.565C65.1 89.525 63.9133 90.0033 62.5 90H50ZM52.5 82.5H60V67.5H52.5V82.5ZM75 100V86.25C75 84.8333 75.48 83.6467 76.44 82.69C77.4 81.7333 78.5867 81.2533 80 81.25H90V77.5H75V70H92.5C93.9167 70 95.105 70.48 96.065 71.44C97.025 72.4 97.5033 73.5867 97.5 75V83.75C97.5 85.1667 97.02 86.355 96.06 87.315C95.1 88.275 93.9133 88.7533 92.5 88.75H82.5V92.5H97.5V100H75ZM35 99.75C24.75 98.5833 16.3533 94.1883 9.81 86.565C3.26667 78.9417 -0.00333079 69.7533 2.54583e-06 59C2.54583e-06 50.6667 3.31334 41.605 9.94 31.815C16.5667 22.025 26.5867 11.42 40 0C51 9.33333 59.73 18.1667 66.19 26.5C72.65 34.8333 76.8367 42.6667 78.75 50H45C42.25 50 39.8967 50.98 37.94 52.94C35.9833 54.9 35.0033 57.2533 35 60V99.75Z" fill="#448AFF"/>
</svg>
