<svg width="57" height="50" viewBox="0 0 57 50" fill="none" xmlns="http://www.w3.org/2000/svg">
<path d="M28 8.30156L26.3594 6.02656C23.625 2.24219 19.2391 0 14.5578 0C6.51875 0 0 6.51875 0 14.5578V14.8422C0 17.4234 0.678125 20.0922 1.81563 22.75H13.4094C13.7594 22.75 14.0766 22.5422 14.2188 22.2141L17.6969 13.8688C18.1016 12.9063 19.0422 12.2719 20.0813 12.25C21.1203 12.2281 22.0828 12.8406 22.5094 13.7922L28.1203 26.25L32.6484 17.1937C33.0969 16.3078 34.0047 15.7391 35 15.7391C35.9953 15.7391 36.9031 16.2969 37.3516 17.1937L39.8891 22.2578C40.0422 22.5531 40.3375 22.7391 40.6766 22.7391H54.1953C55.3438 20.0812 56.0109 17.4125 56.0109 14.8313V14.5469C56 6.51875 49.4812 0 41.4422 0C36.7719 0 32.375 2.24219 29.6406 6.02656L28 8.29063V8.30156ZM51.3625 28H40.6656C38.3469 28 36.225 26.6875 35.1859 24.6094L35 24.2375L30.3516 33.5453C29.9031 34.4531 28.9625 35.0219 27.9453 35C26.9281 34.9781 26.0203 34.3766 25.6047 33.4578L20.2125 21.4812L19.0641 24.2375C18.1125 26.5234 15.8812 28.0109 13.4094 28.0109H4.6375C9.8 36.0828 18.0906 43.5094 23.275 47.4688C24.6313 48.4969 26.2937 49.0109 27.9891 49.0109C29.6844 49.0109 31.3578 48.5078 32.7031 47.4688C37.9094 43.4984 46.2 36.0719 51.3625 28Z" fill="#FF669D"/>
</svg>
